<svg xmlns="http://www.w3.org/2000/svg" width="3" height="9" fill="none" xmlns:v="https://vecta.io/nano"><path d="M.75 7.5a.75.75 0 0 1 .213-.541.75.75 0 0 1 .536-.226.75.75 0 0 1 .536.226.75.75 0 0 1 .214.541.75.75 0 0 1-.75.733.75.75 0 0 1-.75-.733zm.75-5.25a.75.75 0 0 1-.541-.213.75.75 0 0 1-.226-.536.75.75 0 0 1 .225-.536A.75.75 0 0 1 1.5.751a.75.75 0 0 1 .733.75.75.75 0 0 1-.733.75zm0 3a.75.75 0 0 1-.541-.213.75.75 0 0 1-.226-.536.75.75 0 0 1 .225-.536.75.75 0 0 1 .541-.214.75.75 0 0 1 .733.75.75.75 0 0 1-.733.75z" fill="#626c74"/></svg>