<svg xmlns="http://www.w3.org/2000/svg" enable-background="new 0 0 64 64" viewBox="0 0 64 64"><path fill="#77C9AE" d="M54,23.5c0,9.6-13.9,29.8-19.6,37.7c-1.2,1.7-3.7,1.7-4.9,0C23.9,53.3,10,33.2,10,23.5c0-12.2,9.8-22,22-22
		S54,11.4,54,23.5z"/><path fill="#62C3A6" d="M39.2,2.7v29.5c0,9.7-7.8,17.5-17.5,17.5l0,0c3,4.7,5.9,8.8,7.9,11.6c1.2,1.7,3.7,1.7,4.9,0
		c5.6-8,19.5-28.1,19.5-37.8C54,13.9,47.8,5.7,39.2,2.7z"/><path fill="none" stroke="#2B3C65" stroke-linecap="round" stroke-linejoin="round" stroke-miterlimit="10" stroke-width="2" d="
		M54,23.5c0,9.6-13.9,29.8-19.6,37.7c-1.2,1.7-3.7,1.7-4.9,0C23.9,53.3,10,33.2,10,23.5c0-12.2,9.8-22,22-22S54,11.4,54,23.5z"/><circle cx="32" cy="23.5" r="16.7" fill="#FFF" stroke="#2B3C65" stroke-linecap="round" stroke-linejoin="round" stroke-miterlimit="10" stroke-width="2"/><path fill="#FECB4D" stroke="#2B3C65" stroke-linecap="round" stroke-linejoin="round" stroke-miterlimit="10" stroke-width="2" d="
		M41.5,25.3c-0.1,1.4-0.8,2.4-1.7,2.4c-0.2,0-0.5-0.1-0.7-0.3c-0.5,4.7-3.5,7.2-7.2,7.2s-6.7-2.6-7.2-7.2c-0.2,0.2-0.4,0.3-0.7,0.3
		c-0.9,0-1.6-1-1.7-2.4c0-1.4,0.6-2.5,1.5-2.5c0.4,0,0.8,0.2,1.1,0.6c0.9-4.1,3.7-7.1,6.9-7.1s6.1,3,6.9,7.1
		c0.3-0.4,0.7-0.6,1.1-0.6C40.9,22.8,41.6,24,41.5,25.3z"/><path fill="#F05991" stroke="#2B3C65" stroke-linecap="round" stroke-linejoin="round" stroke-miterlimit="10" stroke-width="2" d="
		M40,22.8c0.3,0,0.5,0.1,0.7,0.4v-2c0-4.9-3.9-8.8-8.8-8.8s-8.8,3.9-8.8,8.8v2c0.2-0.2,0.5-0.3,0.7-0.4c0.5,0,1,0.4,1.3,0.9
		c1.3-0.4,3.7-1.6,4.6-5.5c0,0,1.9,4,9,5.3C39.2,23.1,39.6,22.8,40,22.8z"/></svg>